<svg width="1200" height="800" viewBox="0 0 1200 800" fill="none" xmlns="http://www.w3.org/2000/svg">
  <rect width="1200" height="800" rx="36" fill="#F5EDE2"/>
  <rect x="54" y="54" width="1092" height="692" rx="30" fill="#DDD0BD"/>
  <path d="M0 620C188 560 346 534 484 544C674 560 820 660 1200 590V800H0V620Z" fill="#BFA184"/>
  <g stroke="#8A6A52" stroke-width="7" stroke-linecap="round" opacity="0.72">
    <path d="M214 182L186 300"/>
    <path d="M328 150L302 268"/>
    <path d="M450 196L422 314"/>
    <path d="M612 164L586 282"/>
    <path d="M760 170L732 288"/>
    <path d="M894 142L868 260"/>
    <path d="M1024 184L996 302"/>
  </g>
  <path d="M594 430L576 534L620 620L646 724" stroke="#4C3A2D" stroke-width="16" stroke-linecap="round" stroke-linejoin="round"/>
  <path d="M576 534L516 616L490 724" stroke="#4C3A2D" stroke-width="16" stroke-linecap="round" stroke-linejoin="round"/>
  <path d="M586 482L514 526" stroke="#4C3A2D" stroke-width="16" stroke-linecap="round"/>
  <path d="M604 480L680 504" stroke="#4C3A2D" stroke-width="16" stroke-linecap="round"/>
  <circle cx="604" cy="388" r="44" fill="#4C3A2D"/>
  <path d="M672 500C650 430 582 404 542 446" stroke="#6D5543" stroke-width="14" stroke-linecap="round"/>
  <text x="90" y="120" fill="#6D5543" font-family="Georgia, serif" font-size="42" letter-spacing="4">
    MONSOON EVENING
  </text>
</svg>

