<svg width="1200" height="800" viewBox="0 0 1200 800" fill="none" xmlns="http://www.w3.org/2000/svg">
  <rect width="1200" height="800" rx="36" fill="#FAF3E8"/>
  <rect x="54" y="54" width="1092" height="692" rx="30" fill="#EEE0CA"/>
  <circle cx="914" cy="212" r="92" fill="#F7D6A8"/>
  <path d="M0 594C164 508 314 486 470 520C650 560 784 660 1200 566V800H0V594Z" fill="#CCAF91"/>
  <path d="M0 656C174 614 330 604 506 634C670 662 836 732 1200 664V800H0V656Z" fill="#B68E72"/>
  <path d="M576 436L560 540L604 626L632 724" stroke="#4E3A2D" stroke-width="16" stroke-linecap="round" stroke-linejoin="round"/>
  <path d="M558 540L502 624L472 724" stroke="#4E3A2D" stroke-width="16" stroke-linecap="round" stroke-linejoin="round"/>
  <path d="M566 488L494 534" stroke="#4E3A2D" stroke-width="16" stroke-linecap="round"/>
  <path d="M586 488L658 520" stroke="#4E3A2D" stroke-width="16" stroke-linecap="round"/>
  <circle cx="586" cy="394" r="44" fill="#4E3A2D"/>
  <text x="90" y="120" fill="#6D5543" font-family="Georgia, serif" font-size="42" letter-spacing="4">
    AIRPORT DAWN
  </text>
</svg>
